<mxfile host="Electron" agent="Mozilla/5.0 (Windows NT 10.0; Win64; x64) AppleWebKit/537.36 (KHTML, like Gecko) draw.io/24.7.17 Chrome/128.0.6613.36 Electron/32.0.1 Safari/537.36" version="24.7.17">
  <diagram id="R2lEEEUBdFMjLlhIrx00" name="Page-1">
    <mxGraphModel dx="2600" dy="1048" grid="1" gridSize="10" guides="1" tooltips="1" connect="1" arrows="1" fold="1" page="1" pageScale="1" pageWidth="850" pageHeight="1100" math="0" shadow="0" extFonts="Permanent Marker^https://fonts.googleapis.com/css?family=Permanent+Marker">
      <root>
        <mxCell id="0" />
        <mxCell id="1" parent="0" />
        <mxCell id="TfZkgN9oAAijPGuQ7Fzb-1" value="Álláskereső" style="whiteSpace=wrap;html=1;align=center;" parent="1" vertex="1">
          <mxGeometry x="590" y="320" width="100" height="40" as="geometry" />
        </mxCell>
        <mxCell id="TfZkgN9oAAijPGuQ7Fzb-2" value="Cég" style="whiteSpace=wrap;html=1;align=center;" parent="1" vertex="1">
          <mxGeometry x="-190" y="340" width="100" height="40" as="geometry" />
        </mxCell>
        <mxCell id="TfZkgN9oAAijPGuQ7Fzb-3" value="Állás" style="whiteSpace=wrap;html=1;align=center;" parent="1" vertex="1">
          <mxGeometry x="200" y="410" width="100" height="40" as="geometry" />
        </mxCell>
        <mxCell id="TfZkgN9oAAijPGuQ7Fzb-4" value="Adatlap" style="whiteSpace=wrap;html=1;align=center;" parent="1" vertex="1">
          <mxGeometry x="640" y="550" width="100" height="40" as="geometry" />
        </mxCell>
        <mxCell id="TfZkgN9oAAijPGuQ7Fzb-5" value="Admin" style="whiteSpace=wrap;html=1;align=center;" parent="1" vertex="1">
          <mxGeometry x="980" y="520" width="100" height="40" as="geometry" />
        </mxCell>
        <mxCell id="TfZkgN9oAAijPGuQ7Fzb-7" style="edgeStyle=orthogonalEdgeStyle;rounded=0;orthogonalLoop=1;jettySize=auto;html=1;exitX=0.5;exitY=0;exitDx=0;exitDy=0;entryX=0.5;entryY=1;entryDx=0;entryDy=0;endArrow=none;endFill=0;" parent="1" source="TfZkgN9oAAijPGuQ7Fzb-6" target="TfZkgN9oAAijPGuQ7Fzb-1" edge="1">
          <mxGeometry relative="1" as="geometry" />
        </mxCell>
        <mxCell id="TfZkgN9oAAijPGuQ7Fzb-8" style="edgeStyle=orthogonalEdgeStyle;rounded=0;orthogonalLoop=1;jettySize=auto;html=1;exitX=0.5;exitY=1;exitDx=0;exitDy=0;entryX=0.5;entryY=0;entryDx=0;entryDy=0;" parent="1" source="TfZkgN9oAAijPGuQ7Fzb-6" target="TfZkgN9oAAijPGuQ7Fzb-4" edge="1">
          <mxGeometry relative="1" as="geometry" />
        </mxCell>
        <mxCell id="TfZkgN9oAAijPGuQ7Fzb-6" value="Kitölt" style="shape=rhombus;perimeter=rhombusPerimeter;whiteSpace=wrap;html=1;align=center;" parent="1" vertex="1">
          <mxGeometry x="630" y="430" width="120" height="60" as="geometry" />
        </mxCell>
        <mxCell id="TfZkgN9oAAijPGuQ7Fzb-10" style="edgeStyle=orthogonalEdgeStyle;rounded=0;orthogonalLoop=1;jettySize=auto;html=1;exitX=1;exitY=0.5;exitDx=0;exitDy=0;entryX=0;entryY=0.5;entryDx=0;entryDy=0;" parent="1" source="TfZkgN9oAAijPGuQ7Fzb-9" target="TfZkgN9oAAijPGuQ7Fzb-5" edge="1">
          <mxGeometry relative="1" as="geometry" />
        </mxCell>
        <mxCell id="TfZkgN9oAAijPGuQ7Fzb-11" style="edgeStyle=orthogonalEdgeStyle;rounded=0;orthogonalLoop=1;jettySize=auto;html=1;exitX=0;exitY=0.5;exitDx=0;exitDy=0;entryX=1;entryY=0.5;entryDx=0;entryDy=0;endArrow=none;endFill=0;" parent="1" source="TfZkgN9oAAijPGuQ7Fzb-9" target="TfZkgN9oAAijPGuQ7Fzb-4" edge="1">
          <mxGeometry relative="1" as="geometry" />
        </mxCell>
        <mxCell id="TfZkgN9oAAijPGuQ7Fzb-9" value="Moderál" style="shape=rhombus;perimeter=rhombusPerimeter;whiteSpace=wrap;html=1;align=center;" parent="1" vertex="1">
          <mxGeometry x="800" y="540" width="120" height="60" as="geometry" />
        </mxCell>
        <mxCell id="TfZkgN9oAAijPGuQ7Fzb-13" style="edgeStyle=orthogonalEdgeStyle;rounded=0;orthogonalLoop=1;jettySize=auto;html=1;exitX=0;exitY=0.5;exitDx=0;exitDy=0;entryX=1;entryY=0.5;entryDx=0;entryDy=0;" parent="1" source="TfZkgN9oAAijPGuQ7Fzb-12" target="TfZkgN9oAAijPGuQ7Fzb-2" edge="1">
          <mxGeometry relative="1" as="geometry" />
        </mxCell>
        <mxCell id="TfZkgN9oAAijPGuQ7Fzb-14" style="edgeStyle=orthogonalEdgeStyle;rounded=0;orthogonalLoop=1;jettySize=auto;html=1;exitX=1;exitY=0.5;exitDx=0;exitDy=0;entryX=0;entryY=0.5;entryDx=0;entryDy=0;endArrow=none;endFill=0;" parent="1" source="TfZkgN9oAAijPGuQ7Fzb-12" target="TfZkgN9oAAijPGuQ7Fzb-3" edge="1">
          <mxGeometry relative="1" as="geometry" />
        </mxCell>
        <mxCell id="TfZkgN9oAAijPGuQ7Fzb-12" value="Hirdet" style="shape=rhombus;perimeter=rhombusPerimeter;whiteSpace=wrap;html=1;align=center;" parent="1" vertex="1">
          <mxGeometry x="40" y="330" width="120" height="60" as="geometry" />
        </mxCell>
        <mxCell id="TfZkgN9oAAijPGuQ7Fzb-17" style="edgeStyle=orthogonalEdgeStyle;rounded=0;orthogonalLoop=1;jettySize=auto;html=1;exitX=0;exitY=0.5;exitDx=0;exitDy=0;entryX=1;entryY=0.5;entryDx=0;entryDy=0;endArrow=none;endFill=0;" parent="1" source="TfZkgN9oAAijPGuQ7Fzb-15" target="TfZkgN9oAAijPGuQ7Fzb-3" edge="1">
          <mxGeometry relative="1" as="geometry" />
        </mxCell>
        <mxCell id="TfZkgN9oAAijPGuQ7Fzb-18" style="edgeStyle=orthogonalEdgeStyle;rounded=0;orthogonalLoop=1;jettySize=auto;html=1;exitX=1;exitY=0.5;exitDx=0;exitDy=0;entryX=0;entryY=0.5;entryDx=0;entryDy=0;endArrow=none;endFill=0;" parent="1" source="TfZkgN9oAAijPGuQ7Fzb-15" target="TfZkgN9oAAijPGuQ7Fzb-1" edge="1">
          <mxGeometry relative="1" as="geometry" />
        </mxCell>
        <mxCell id="TfZkgN9oAAijPGuQ7Fzb-15" value="Jelentkezik" style="shape=rhombus;perimeter=rhombusPerimeter;whiteSpace=wrap;html=1;align=center;" parent="1" vertex="1">
          <mxGeometry x="345" y="310" width="120" height="60" as="geometry" />
        </mxCell>
        <mxCell id="TfZkgN9oAAijPGuQ7Fzb-25" style="rounded=0;orthogonalLoop=1;jettySize=auto;html=1;exitX=0.5;exitY=1;exitDx=0;exitDy=0;entryX=0.75;entryY=0;entryDx=0;entryDy=0;endArrow=none;endFill=0;" parent="1" source="TfZkgN9oAAijPGuQ7Fzb-19" target="TfZkgN9oAAijPGuQ7Fzb-1" edge="1">
          <mxGeometry relative="1" as="geometry" />
        </mxCell>
        <mxCell id="TfZkgN9oAAijPGuQ7Fzb-19" value="Név" style="ellipse;whiteSpace=wrap;html=1;align=center;" parent="1" vertex="1">
          <mxGeometry x="860" y="100" width="100" height="40" as="geometry" />
        </mxCell>
        <mxCell id="TfZkgN9oAAijPGuQ7Fzb-24" style="rounded=0;orthogonalLoop=1;jettySize=auto;html=1;exitX=0.5;exitY=1;exitDx=0;exitDy=0;entryX=0.5;entryY=0;entryDx=0;entryDy=0;endArrow=none;endFill=0;" parent="1" source="TfZkgN9oAAijPGuQ7Fzb-20" target="TfZkgN9oAAijPGuQ7Fzb-1" edge="1">
          <mxGeometry relative="1" as="geometry" />
        </mxCell>
        <mxCell id="TfZkgN9oAAijPGuQ7Fzb-20" value="&lt;u&gt;Email&lt;/u&gt;" style="ellipse;whiteSpace=wrap;html=1;align=center;" parent="1" vertex="1">
          <mxGeometry x="770" y="60" width="100" height="40" as="geometry" />
        </mxCell>
        <mxCell id="TfZkgN9oAAijPGuQ7Fzb-26" style="rounded=0;orthogonalLoop=1;jettySize=auto;html=1;exitX=0.5;exitY=1;exitDx=0;exitDy=0;entryX=1;entryY=0;entryDx=0;entryDy=0;endArrow=none;endFill=0;" parent="1" source="TfZkgN9oAAijPGuQ7Fzb-21" target="TfZkgN9oAAijPGuQ7Fzb-1" edge="1">
          <mxGeometry relative="1" as="geometry" />
        </mxCell>
        <mxCell id="TfZkgN9oAAijPGuQ7Fzb-21" value="Jelszó" style="ellipse;whiteSpace=wrap;html=1;align=center;" parent="1" vertex="1">
          <mxGeometry x="950" y="140" width="100" height="40" as="geometry" />
        </mxCell>
        <mxCell id="TfZkgN9oAAijPGuQ7Fzb-27" style="rounded=0;orthogonalLoop=1;jettySize=auto;html=1;exitX=0;exitY=0;exitDx=0;exitDy=0;entryX=1;entryY=1;entryDx=0;entryDy=0;endArrow=none;endFill=0;" parent="1" source="TfZkgN9oAAijPGuQ7Fzb-22" target="TfZkgN9oAAijPGuQ7Fzb-4" edge="1">
          <mxGeometry relative="1" as="geometry" />
        </mxCell>
        <mxCell id="TfZkgN9oAAijPGuQ7Fzb-22" value="Lakcím" style="ellipse;whiteSpace=wrap;html=1;align=center;" parent="1" vertex="1">
          <mxGeometry x="920" y="730" width="100" height="40" as="geometry" />
        </mxCell>
        <mxCell id="TfZkgN9oAAijPGuQ7Fzb-33" style="rounded=0;orthogonalLoop=1;jettySize=auto;html=1;exitX=0.5;exitY=1;exitDx=0;exitDy=0;entryX=0.25;entryY=0;entryDx=0;entryDy=0;endArrow=none;endFill=0;" parent="1" source="TfZkgN9oAAijPGuQ7Fzb-28" target="TfZkgN9oAAijPGuQ7Fzb-2" edge="1">
          <mxGeometry relative="1" as="geometry" />
        </mxCell>
        <mxCell id="TfZkgN9oAAijPGuQ7Fzb-28" value="&lt;u&gt;Név&lt;/u&gt;" style="ellipse;whiteSpace=wrap;html=1;align=center;" parent="1" vertex="1">
          <mxGeometry x="-390" y="250" width="100" height="40" as="geometry" />
        </mxCell>
        <mxCell id="TfZkgN9oAAijPGuQ7Fzb-34" style="rounded=0;orthogonalLoop=1;jettySize=auto;html=1;exitX=1;exitY=0.5;exitDx=0;exitDy=0;entryX=0;entryY=0.25;entryDx=0;entryDy=0;endArrow=none;endFill=0;" parent="1" source="TfZkgN9oAAijPGuQ7Fzb-29" target="TfZkgN9oAAijPGuQ7Fzb-2" edge="1">
          <mxGeometry relative="1" as="geometry" />
        </mxCell>
        <mxCell id="TfZkgN9oAAijPGuQ7Fzb-29" value="Email" style="ellipse;whiteSpace=wrap;html=1;align=center;" parent="1" vertex="1">
          <mxGeometry x="-425" y="320" width="100" height="40" as="geometry" />
        </mxCell>
        <mxCell id="TfZkgN9oAAijPGuQ7Fzb-32" style="rounded=0;orthogonalLoop=1;jettySize=auto;html=1;exitX=0.5;exitY=1;exitDx=0;exitDy=0;entryX=0.5;entryY=0;entryDx=0;entryDy=0;endArrow=none;endFill=0;" parent="1" source="TfZkgN9oAAijPGuQ7Fzb-30" target="TfZkgN9oAAijPGuQ7Fzb-2" edge="1">
          <mxGeometry relative="1" as="geometry" />
        </mxCell>
        <mxCell id="TfZkgN9oAAijPGuQ7Fzb-30" value="Jelszó" style="ellipse;whiteSpace=wrap;html=1;align=center;" parent="1" vertex="1">
          <mxGeometry x="-290" y="210" width="100" height="40" as="geometry" />
        </mxCell>
        <mxCell id="TfZkgN9oAAijPGuQ7Fzb-37" style="rounded=0;orthogonalLoop=1;jettySize=auto;html=1;exitX=0.5;exitY=0;exitDx=0;exitDy=0;entryX=0.25;entryY=1;entryDx=0;entryDy=0;endArrow=none;endFill=0;" parent="1" source="TfZkgN9oAAijPGuQ7Fzb-36" target="TfZkgN9oAAijPGuQ7Fzb-4" edge="1">
          <mxGeometry relative="1" as="geometry" />
        </mxCell>
        <mxCell id="TfZkgN9oAAijPGuQ7Fzb-36" value="Képzettség" style="ellipse;whiteSpace=wrap;html=1;align=center;" parent="1" vertex="1">
          <mxGeometry x="520" y="750" width="100" height="40" as="geometry" />
        </mxCell>
        <mxCell id="TfZkgN9oAAijPGuQ7Fzb-42" style="rounded=0;orthogonalLoop=1;jettySize=auto;html=1;exitX=0.5;exitY=0;exitDx=0;exitDy=0;entryX=0.5;entryY=1;entryDx=0;entryDy=0;endArrow=none;endFill=0;" parent="1" source="TfZkgN9oAAijPGuQ7Fzb-38" target="TfZkgN9oAAijPGuQ7Fzb-3" edge="1">
          <mxGeometry relative="1" as="geometry" />
        </mxCell>
        <mxCell id="TfZkgN9oAAijPGuQ7Fzb-38" value="Munkakör" style="ellipse;whiteSpace=wrap;html=1;align=center;" parent="1" vertex="1">
          <mxGeometry x="240" y="620" width="100" height="40" as="geometry" />
        </mxCell>
        <mxCell id="TfZkgN9oAAijPGuQ7Fzb-41" style="rounded=0;orthogonalLoop=1;jettySize=auto;html=1;exitX=0.5;exitY=0;exitDx=0;exitDy=0;entryX=0.25;entryY=1;entryDx=0;entryDy=0;endArrow=none;endFill=0;" parent="1" source="TfZkgN9oAAijPGuQ7Fzb-39" target="TfZkgN9oAAijPGuQ7Fzb-3" edge="1">
          <mxGeometry relative="1" as="geometry" />
        </mxCell>
        <mxCell id="TfZkgN9oAAijPGuQ7Fzb-39" value="Fizetés" style="ellipse;whiteSpace=wrap;html=1;align=center;" parent="1" vertex="1">
          <mxGeometry x="30" y="600" width="100" height="40" as="geometry" />
        </mxCell>
        <mxCell id="TfZkgN9oAAijPGuQ7Fzb-65" style="rounded=0;orthogonalLoop=1;jettySize=auto;html=1;exitX=0;exitY=0.5;exitDx=0;exitDy=0;entryX=1;entryY=0.5;entryDx=0;entryDy=0;endArrow=none;endFill=0;" parent="1" source="TfZkgN9oAAijPGuQ7Fzb-43" target="TfZkgN9oAAijPGuQ7Fzb-5" edge="1">
          <mxGeometry relative="1" as="geometry" />
        </mxCell>
        <mxCell id="TfZkgN9oAAijPGuQ7Fzb-43" value="Név" style="ellipse;whiteSpace=wrap;html=1;align=center;" parent="1" vertex="1">
          <mxGeometry x="1120" y="500" width="100" height="40" as="geometry" />
        </mxCell>
        <mxCell id="TfZkgN9oAAijPGuQ7Fzb-64" style="rounded=0;orthogonalLoop=1;jettySize=auto;html=1;exitX=0.5;exitY=1;exitDx=0;exitDy=0;entryX=0.5;entryY=0;entryDx=0;entryDy=0;endArrow=none;endFill=0;" parent="1" source="TfZkgN9oAAijPGuQ7Fzb-44" target="TfZkgN9oAAijPGuQ7Fzb-5" edge="1">
          <mxGeometry relative="1" as="geometry" />
        </mxCell>
        <mxCell id="TfZkgN9oAAijPGuQ7Fzb-44" value="&lt;u&gt;Email&lt;/u&gt;" style="ellipse;whiteSpace=wrap;html=1;align=center;" parent="1" vertex="1">
          <mxGeometry x="1070" y="440" width="100" height="40" as="geometry" />
        </mxCell>
        <mxCell id="TfZkgN9oAAijPGuQ7Fzb-66" style="rounded=0;orthogonalLoop=1;jettySize=auto;html=1;exitX=0;exitY=0.5;exitDx=0;exitDy=0;entryX=0.75;entryY=1;entryDx=0;entryDy=0;endArrow=none;endFill=0;" parent="1" source="TfZkgN9oAAijPGuQ7Fzb-45" target="TfZkgN9oAAijPGuQ7Fzb-5" edge="1">
          <mxGeometry relative="1" as="geometry" />
        </mxCell>
        <mxCell id="TfZkgN9oAAijPGuQ7Fzb-45" value="Jelszó" style="ellipse;whiteSpace=wrap;html=1;align=center;" parent="1" vertex="1">
          <mxGeometry x="1110" y="570" width="100" height="40" as="geometry" />
        </mxCell>
        <mxCell id="TfZkgN9oAAijPGuQ7Fzb-48" style="rounded=0;orthogonalLoop=1;jettySize=auto;html=1;exitX=0;exitY=0.5;exitDx=0;exitDy=0;entryX=1;entryY=0.25;entryDx=0;entryDy=0;endArrow=none;endFill=0;" parent="1" source="TfZkgN9oAAijPGuQ7Fzb-46" target="TfZkgN9oAAijPGuQ7Fzb-1" edge="1">
          <mxGeometry relative="1" as="geometry" />
        </mxCell>
        <mxCell id="TfZkgN9oAAijPGuQ7Fzb-46" value="Bejelentkezés_időpont" style="ellipse;whiteSpace=wrap;html=1;align=center;" parent="1" vertex="1">
          <mxGeometry x="990" y="220" width="130" height="50" as="geometry" />
        </mxCell>
        <mxCell id="TfZkgN9oAAijPGuQ7Fzb-50" style="rounded=0;orthogonalLoop=1;jettySize=auto;html=1;exitX=0.5;exitY=1;exitDx=0;exitDy=0;entryX=0.25;entryY=0;entryDx=0;entryDy=0;endArrow=none;endFill=0;" parent="1" source="TfZkgN9oAAijPGuQ7Fzb-49" target="TfZkgN9oAAijPGuQ7Fzb-1" edge="1">
          <mxGeometry relative="1" as="geometry" />
        </mxCell>
        <mxCell id="TfZkgN9oAAijPGuQ7Fzb-49" value="Státusz" style="ellipse;whiteSpace=wrap;html=1;align=center;" parent="1" vertex="1">
          <mxGeometry x="660" y="60" width="100" height="40" as="geometry" />
        </mxCell>
        <mxCell id="TfZkgN9oAAijPGuQ7Fzb-52" style="rounded=0;orthogonalLoop=1;jettySize=auto;html=1;exitX=0.5;exitY=0;exitDx=0;exitDy=0;entryX=0.75;entryY=1;entryDx=0;entryDy=0;endArrow=none;endFill=0;" parent="1" source="TfZkgN9oAAijPGuQ7Fzb-51" target="TfZkgN9oAAijPGuQ7Fzb-3" edge="1">
          <mxGeometry relative="1" as="geometry" />
        </mxCell>
        <mxCell id="TfZkgN9oAAijPGuQ7Fzb-51" value="Cím" style="ellipse;whiteSpace=wrap;html=1;align=center;" parent="1" vertex="1">
          <mxGeometry x="330" y="570" width="100" height="40" as="geometry" />
        </mxCell>
        <mxCell id="TfZkgN9oAAijPGuQ7Fzb-54" style="rounded=0;orthogonalLoop=1;jettySize=auto;html=1;exitX=1;exitY=0;exitDx=0;exitDy=0;entryX=0;entryY=1;entryDx=0;entryDy=0;endArrow=none;endFill=0;" parent="1" source="TfZkgN9oAAijPGuQ7Fzb-53" target="TfZkgN9oAAijPGuQ7Fzb-3" edge="1">
          <mxGeometry relative="1" as="geometry" />
        </mxCell>
        <mxCell id="TfZkgN9oAAijPGuQ7Fzb-53" value="Leírás" style="ellipse;whiteSpace=wrap;html=1;align=center;" parent="1" vertex="1">
          <mxGeometry x="-60" y="570" width="100" height="40" as="geometry" />
        </mxCell>
        <mxCell id="FUmWG1da8jLQ4E1M9ivD-2" style="rounded=0;orthogonalLoop=1;jettySize=auto;html=1;exitX=1;exitY=0;exitDx=0;exitDy=0;entryX=0;entryY=1;entryDx=0;entryDy=0;endArrow=none;endFill=0;" edge="1" parent="1" source="FUmWG1da8jLQ4E1M9ivD-1" target="TfZkgN9oAAijPGuQ7Fzb-4">
          <mxGeometry relative="1" as="geometry" />
        </mxCell>
        <mxCell id="FUmWG1da8jLQ4E1M9ivD-1" value="Önéletrajz" style="ellipse;whiteSpace=wrap;html=1;align=center;" vertex="1" parent="1">
          <mxGeometry x="465" y="700" width="100" height="40" as="geometry" />
        </mxCell>
        <mxCell id="FUmWG1da8jLQ4E1M9ivD-10" style="edgeStyle=orthogonalEdgeStyle;rounded=0;orthogonalLoop=1;jettySize=auto;html=1;exitX=1;exitY=0.5;exitDx=0;exitDy=0;entryX=0;entryY=0.5;entryDx=0;entryDy=0;endArrow=none;endFill=0;" edge="1" parent="1" source="FUmWG1da8jLQ4E1M9ivD-3" target="FUmWG1da8jLQ4E1M9ivD-8">
          <mxGeometry relative="1" as="geometry" />
        </mxCell>
        <mxCell id="FUmWG1da8jLQ4E1M9ivD-3" value="HR_Ügynök" style="whiteSpace=wrap;html=1;align=center;" vertex="1" parent="1">
          <mxGeometry x="90" y="150" width="100" height="40" as="geometry" />
        </mxCell>
        <mxCell id="FUmWG1da8jLQ4E1M9ivD-6" style="edgeStyle=orthogonalEdgeStyle;rounded=0;orthogonalLoop=1;jettySize=auto;html=1;exitX=0.5;exitY=1;exitDx=0;exitDy=0;entryX=0.75;entryY=0;entryDx=0;entryDy=0;" edge="1" parent="1" source="FUmWG1da8jLQ4E1M9ivD-4" target="TfZkgN9oAAijPGuQ7Fzb-2">
          <mxGeometry relative="1" as="geometry" />
        </mxCell>
        <mxCell id="FUmWG1da8jLQ4E1M9ivD-7" style="edgeStyle=orthogonalEdgeStyle;rounded=0;orthogonalLoop=1;jettySize=auto;html=1;exitX=0.5;exitY=0;exitDx=0;exitDy=0;entryX=0;entryY=0.5;entryDx=0;entryDy=0;endArrow=none;endFill=0;" edge="1" parent="1" source="FUmWG1da8jLQ4E1M9ivD-4" target="FUmWG1da8jLQ4E1M9ivD-3">
          <mxGeometry relative="1" as="geometry" />
        </mxCell>
        <mxCell id="FUmWG1da8jLQ4E1M9ivD-4" value="Tartozik" style="shape=rhombus;perimeter=rhombusPerimeter;whiteSpace=wrap;html=1;align=center;" vertex="1" parent="1">
          <mxGeometry x="-40" y="220" width="120" height="60" as="geometry" />
        </mxCell>
        <mxCell id="FUmWG1da8jLQ4E1M9ivD-11" style="edgeStyle=orthogonalEdgeStyle;rounded=0;orthogonalLoop=1;jettySize=auto;html=1;exitX=1;exitY=0.5;exitDx=0;exitDy=0;entryX=0;entryY=0.25;entryDx=0;entryDy=0;endArrow=none;endFill=0;" edge="1" parent="1" source="FUmWG1da8jLQ4E1M9ivD-8" target="TfZkgN9oAAijPGuQ7Fzb-1">
          <mxGeometry relative="1" as="geometry" />
        </mxCell>
        <mxCell id="FUmWG1da8jLQ4E1M9ivD-8" value="Felkeres" style="shape=rhombus;perimeter=rhombusPerimeter;whiteSpace=wrap;html=1;align=center;" vertex="1" parent="1">
          <mxGeometry x="290" y="140" width="120" height="60" as="geometry" />
        </mxCell>
        <mxCell id="FUmWG1da8jLQ4E1M9ivD-21" style="rounded=0;orthogonalLoop=1;jettySize=auto;html=1;exitX=0.5;exitY=0;exitDx=0;exitDy=0;entryX=0.5;entryY=1;entryDx=0;entryDy=0;endArrow=none;endFill=0;" edge="1" parent="1" source="FUmWG1da8jLQ4E1M9ivD-20" target="TfZkgN9oAAijPGuQ7Fzb-4">
          <mxGeometry relative="1" as="geometry" />
        </mxCell>
        <mxCell id="FUmWG1da8jLQ4E1M9ivD-20" value="Nyelvvizsga" style="ellipse;whiteSpace=wrap;html=1;align=center;" vertex="1" parent="1">
          <mxGeometry x="610" y="780" width="100" height="40" as="geometry" />
        </mxCell>
        <mxCell id="FUmWG1da8jLQ4E1M9ivD-23" style="rounded=0;orthogonalLoop=1;jettySize=auto;html=1;exitX=0.5;exitY=0;exitDx=0;exitDy=0;entryX=0.75;entryY=1;entryDx=0;entryDy=0;endArrow=none;endFill=0;" edge="1" parent="1" source="FUmWG1da8jLQ4E1M9ivD-22" target="TfZkgN9oAAijPGuQ7Fzb-4">
          <mxGeometry relative="1" as="geometry" />
        </mxCell>
        <mxCell id="FUmWG1da8jLQ4E1M9ivD-22" value="Végzettség" style="ellipse;whiteSpace=wrap;html=1;align=center;" vertex="1" parent="1">
          <mxGeometry x="820" y="770" width="100" height="40" as="geometry" />
        </mxCell>
        <mxCell id="FUmWG1da8jLQ4E1M9ivD-27" style="rounded=0;orthogonalLoop=1;jettySize=auto;html=1;exitX=0.5;exitY=1;exitDx=0;exitDy=0;entryX=0;entryY=0;entryDx=0;entryDy=0;endArrow=none;endFill=0;" edge="1" parent="1" source="FUmWG1da8jLQ4E1M9ivD-24" target="FUmWG1da8jLQ4E1M9ivD-3">
          <mxGeometry relative="1" as="geometry" />
        </mxCell>
        <mxCell id="FUmWG1da8jLQ4E1M9ivD-24" value="&lt;u&gt;Email&lt;/u&gt;" style="ellipse;whiteSpace=wrap;html=1;align=center;" vertex="1" parent="1">
          <mxGeometry x="-50" y="50" width="100" height="40" as="geometry" />
        </mxCell>
        <mxCell id="FUmWG1da8jLQ4E1M9ivD-28" style="rounded=0;orthogonalLoop=1;jettySize=auto;html=1;exitX=0.5;exitY=1;exitDx=0;exitDy=0;entryX=0.5;entryY=0;entryDx=0;entryDy=0;endArrow=none;endFill=0;" edge="1" parent="1" source="FUmWG1da8jLQ4E1M9ivD-25" target="FUmWG1da8jLQ4E1M9ivD-3">
          <mxGeometry relative="1" as="geometry" />
        </mxCell>
        <mxCell id="FUmWG1da8jLQ4E1M9ivD-25" value="Név" style="ellipse;whiteSpace=wrap;html=1;align=center;" vertex="1" parent="1">
          <mxGeometry x="50" y="30" width="100" height="40" as="geometry" />
        </mxCell>
        <mxCell id="FUmWG1da8jLQ4E1M9ivD-29" style="rounded=0;orthogonalLoop=1;jettySize=auto;html=1;exitX=0.5;exitY=1;exitDx=0;exitDy=0;entryX=0.75;entryY=0;entryDx=0;entryDy=0;endArrow=none;endFill=0;" edge="1" parent="1" source="FUmWG1da8jLQ4E1M9ivD-26" target="FUmWG1da8jLQ4E1M9ivD-3">
          <mxGeometry relative="1" as="geometry" />
        </mxCell>
        <mxCell id="FUmWG1da8jLQ4E1M9ivD-26" value="Jelszó" style="ellipse;whiteSpace=wrap;html=1;align=center;" vertex="1" parent="1">
          <mxGeometry x="160" y="40" width="100" height="40" as="geometry" />
        </mxCell>
        <mxCell id="FUmWG1da8jLQ4E1M9ivD-31" style="rounded=0;orthogonalLoop=1;jettySize=auto;html=1;exitX=1;exitY=0.5;exitDx=0;exitDy=0;entryX=0;entryY=0.75;entryDx=0;entryDy=0;endArrow=none;endFill=0;" edge="1" parent="1" source="FUmWG1da8jLQ4E1M9ivD-30" target="TfZkgN9oAAijPGuQ7Fzb-3">
          <mxGeometry relative="1" as="geometry" />
        </mxCell>
        <mxCell id="FUmWG1da8jLQ4E1M9ivD-30" value="&lt;u&gt;Id&lt;/u&gt;" style="ellipse;whiteSpace=wrap;html=1;align=center;" vertex="1" parent="1">
          <mxGeometry x="-150" y="460" width="100" height="40" as="geometry" />
        </mxCell>
        <mxCell id="FUmWG1da8jLQ4E1M9ivD-33" style="rounded=0;orthogonalLoop=1;jettySize=auto;html=1;exitX=0;exitY=0;exitDx=0;exitDy=0;entryX=1;entryY=1;entryDx=0;entryDy=0;endArrow=none;endFill=0;" edge="1" parent="1" source="FUmWG1da8jLQ4E1M9ivD-32" target="TfZkgN9oAAijPGuQ7Fzb-4">
          <mxGeometry relative="1" as="geometry" />
        </mxCell>
        <mxCell id="FUmWG1da8jLQ4E1M9ivD-32" value="&lt;u&gt;Id&lt;/u&gt;" style="ellipse;whiteSpace=wrap;html=1;align=center;" vertex="1" parent="1">
          <mxGeometry x="960" y="670" width="100" height="40" as="geometry" />
        </mxCell>
        <mxCell id="FUmWG1da8jLQ4E1M9ivD-35" style="rounded=0;orthogonalLoop=1;jettySize=auto;html=1;exitX=1;exitY=0;exitDx=0;exitDy=0;entryX=0;entryY=0.75;entryDx=0;entryDy=0;endArrow=none;endFill=0;" edge="1" parent="1" source="FUmWG1da8jLQ4E1M9ivD-34" target="TfZkgN9oAAijPGuQ7Fzb-3">
          <mxGeometry relative="1" as="geometry" />
        </mxCell>
        <mxCell id="FUmWG1da8jLQ4E1M9ivD-34" value="Értékelés" style="ellipse;whiteSpace=wrap;html=1;align=center;" vertex="1" parent="1">
          <mxGeometry x="-120" y="520" width="100" height="40" as="geometry" />
        </mxCell>
        <mxCell id="FUmWG1da8jLQ4E1M9ivD-39" style="rounded=0;orthogonalLoop=1;jettySize=auto;html=1;exitX=0;exitY=0;exitDx=0;exitDy=0;entryX=1;entryY=1;entryDx=0;entryDy=0;endArrow=none;endFill=0;" edge="1" parent="1" source="FUmWG1da8jLQ4E1M9ivD-37" target="TfZkgN9oAAijPGuQ7Fzb-3">
          <mxGeometry relative="1" as="geometry" />
        </mxCell>
        <mxCell id="FUmWG1da8jLQ4E1M9ivD-37" value="Hirdetés_dátum" style="ellipse;whiteSpace=wrap;html=1;align=center;" vertex="1" parent="1">
          <mxGeometry x="390" y="510" width="100" height="40" as="geometry" />
        </mxCell>
        <mxCell id="FUmWG1da8jLQ4E1M9ivD-40" style="rounded=0;orthogonalLoop=1;jettySize=auto;html=1;exitX=0;exitY=0.5;exitDx=0;exitDy=0;entryX=1;entryY=0.75;entryDx=0;entryDy=0;endArrow=none;endFill=0;" edge="1" parent="1" source="FUmWG1da8jLQ4E1M9ivD-38" target="TfZkgN9oAAijPGuQ7Fzb-3">
          <mxGeometry relative="1" as="geometry" />
        </mxCell>
        <mxCell id="FUmWG1da8jLQ4E1M9ivD-38" value="Jelentkezés_dátum" style="ellipse;whiteSpace=wrap;html=1;align=center;" vertex="1" parent="1">
          <mxGeometry x="460" y="460" width="110" height="50" as="geometry" />
        </mxCell>
        <mxCell id="FUmWG1da8jLQ4E1M9ivD-42" style="rounded=0;orthogonalLoop=1;jettySize=auto;html=1;exitX=1;exitY=0.5;exitDx=0;exitDy=0;entryX=0;entryY=0.75;entryDx=0;entryDy=0;endArrow=none;endFill=0;" edge="1" parent="1" source="FUmWG1da8jLQ4E1M9ivD-41" target="TfZkgN9oAAijPGuQ7Fzb-2">
          <mxGeometry relative="1" as="geometry" />
        </mxCell>
        <mxCell id="FUmWG1da8jLQ4E1M9ivD-41" value="Cím" style="ellipse;whiteSpace=wrap;html=1;align=center;" vertex="1" parent="1">
          <mxGeometry x="-420" y="390" width="100" height="40" as="geometry" />
        </mxCell>
        <mxCell id="FUmWG1da8jLQ4E1M9ivD-43" value="Születési dátum" style="ellipse;whiteSpace=wrap;html=1;align=center;" vertex="1" parent="1">
          <mxGeometry x="720" y="780" width="100" height="40" as="geometry" />
        </mxCell>
        <mxCell id="FUmWG1da8jLQ4E1M9ivD-44" style="rounded=0;orthogonalLoop=1;jettySize=auto;html=1;exitX=0.5;exitY=0;exitDx=0;exitDy=0;entryX=0.654;entryY=0.992;entryDx=0;entryDy=0;entryPerimeter=0;endArrow=none;endFill=0;" edge="1" parent="1" source="FUmWG1da8jLQ4E1M9ivD-43" target="TfZkgN9oAAijPGuQ7Fzb-4">
          <mxGeometry relative="1" as="geometry" />
        </mxCell>
        <mxCell id="FUmWG1da8jLQ4E1M9ivD-46" style="rounded=0;orthogonalLoop=1;jettySize=auto;html=1;exitX=1;exitY=0;exitDx=0;exitDy=0;entryX=0;entryY=0.75;entryDx=0;entryDy=0;endArrow=none;endFill=0;" edge="1" parent="1" source="FUmWG1da8jLQ4E1M9ivD-45" target="TfZkgN9oAAijPGuQ7Fzb-4">
          <mxGeometry relative="1" as="geometry" />
        </mxCell>
        <mxCell id="FUmWG1da8jLQ4E1M9ivD-45" value="Kitöltés_dátum" style="ellipse;whiteSpace=wrap;html=1;align=center;" vertex="1" parent="1">
          <mxGeometry x="430" y="640" width="100" height="40" as="geometry" />
        </mxCell>
        <mxCell id="FUmWG1da8jLQ4E1M9ivD-47" value="Pozíció" style="ellipse;whiteSpace=wrap;html=1;align=center;" vertex="1" parent="1">
          <mxGeometry x="130" y="620" width="100" height="40" as="geometry" />
        </mxCell>
        <mxCell id="FUmWG1da8jLQ4E1M9ivD-48" style="rounded=0;orthogonalLoop=1;jettySize=auto;html=1;exitX=0.5;exitY=0;exitDx=0;exitDy=0;entryX=0.37;entryY=0.988;entryDx=0;entryDy=0;entryPerimeter=0;endArrow=none;endFill=0;" edge="1" parent="1" source="FUmWG1da8jLQ4E1M9ivD-47" target="TfZkgN9oAAijPGuQ7Fzb-3">
          <mxGeometry relative="1" as="geometry" />
        </mxCell>
      </root>
    </mxGraphModel>
  </diagram>
</mxfile>
